<svg xmlns="http://www.w3.org/2000/svg" viewBox="0 0 512 512"><path d="M147.147 29.165l14.708 25.48 188.306.008 14.693-25.445c-69.772-40.289-152.577-37.561-217.707-.043zm-33.129 19.167C44.242 88.614 5.202 161.689 5.128 236.852l29.46.001 94.136-163.047-14.706-25.474zM34.587 275.128l-29.423-.001c-.004 80.569 43.762 150.916 108.818 188.561l14.726-25.504-94.121-163.056zm315.558 182.228l-188.306-.008-14.693 25.445c69.773 40.287 152.578 37.559 217.707.042l-14.708-25.479zm127.268-182.21l-94.136 163.047 14.705 25.474c69.776-40.28 108.816-113.357 108.889-188.52l-29.458-.001zM398.019 48.312l-14.728 25.504 94.122 163.055 29.423.001c.004-80.567-43.761-150.915-108.817-188.56z" fill="#fe841a"/><path d="M350.162 54.651C321.569 41.257 289.663 33.758 256 33.758c-33.656 0-65.556 7.495-94.145 20.885L256 217.725l94.162-163.074zM128.724 73.806c-52.5 36.744-88.378 95.593-94.135 163.047l188.265.009-94.13-163.056zM34.587 275.128c5.751 67.455 41.625 126.308 94.121 163.055l94.145-163.046-188.266-.009zm127.251 182.221c28.593 13.394 60.499 20.893 94.162 20.893 33.656 0 65.556-7.495 94.145-20.885L256 294.275l-94.162 163.074zm315.575-182.203l-188.265-.009 94.129 163.056c52.499-36.744 88.378-95.593 94.136-163.047zm.001-38.275c-5.751-67.455-41.625-126.308-94.122-163.055l-94.145 163.046 188.267.009z" fill="#ffe368"/><g fill="#ad4a38"><circle cx="256" cy="140.018" r="8.438"/><circle cx="73.436" cy="206.724" r="8.438"/><circle cx="147.141" cy="205.599" r="8.438"/><circle cx="160.082" cy="324.371" r="8.44"/><circle cx="250.937" cy="363.542" r="8.438"/><circle cx="350.175" cy="311.555" r="8.438"/><circle cx="390.021" cy="388.861" r="8.438"/><circle cx="390.021" cy="122.441" r="8.44"/></g><g fill="#f63e31"><circle cx="256" cy="88.322" r="20.572"/><circle cx="110.784" cy="172.155" r="20.572"/><circle cx="110.784" cy="339.844" r="20.572"/><circle cx="256" cy="423.677" r="20.572"/><circle cx="401.217" cy="339.844" r="20.572"/><circle cx="401.217" cy="172.155" r="20.572"/></g></svg>